<svg id="visual" viewBox="0 0 900 600" width="900" height="600" xmlns="http://www.w3.org/2000/svg" xmlns:xlink="http://www.w3.org/1999/xlink" version="1.1"><rect x="0" y="0" width="900" height="600" fill="#002233"></rect><path d="M0 399L21.5 411.2C43 423.3 86 447.7 128.8 462.5C171.7 477.3 214.3 482.7 257.2 471.8C300 461 343 434 385.8 415.3C428.7 396.7 471.3 386.3 514.2 384.8C557 383.3 600 390.7 642.8 413.7C685.7 436.7 728.3 475.3 771.2 486C814 496.7 857 479.3 878.5 470.7L900 462L900 601L878.5 601C857 601 814 601 771.2 601C728.3 601 685.7 601 642.8 601C600 601 557 601 514.2 601C471.3 601 428.7 601 385.8 601C343 601 300 601 257.2 601C214.3 601 171.7 601 128.8 601C86 601 43 601 21.5 601L0 601Z" fill="#0066FF" stroke-linecap="round" stroke-linejoin="miter"></path></svg>